<svg xmlns="http://www.w3.org/2000/svg" width="680" height="414" viewBox="0 0 680 414" font-family="Inter, Arial, sans-serif">
  <text x="40" y="26" font-size="14" font-weight="600" fill="#1f2430">Set B — late game: a legendary hub + ring. One tile decides everything.</text>
  <text x="40" y="48" font-size="12" fill="#5a6072">gold = legendary hub bridge · blue dashed = conduct chain · dim = stranded (no link)</text>

  <line x1="160" y1="110" x2="175" y2="83" stroke="#d99a1f" stroke-width="3"/>
  <line x1="160" y1="110" x2="145" y2="83" stroke="#d99a1f" stroke-width="3"/>
  <line x1="160" y1="110" x2="129" y2="110" stroke="#d99a1f" stroke-width="3"/>
  <line x1="160" y1="110" x2="191" y2="110" stroke="#d99a1f" stroke-width="3"/>
  <line x1="160" y1="110" x2="145" y2="137" stroke="#d99a1f" stroke-width="3"/>
  <line x1="160" y1="110" x2="175" y2="137" stroke="#d99a1f" stroke-width="3"/>
  <polygon points="191,74 175,65 159,74 159,92 175,101 191,92" fill="#e0552e" stroke="#a83a1c" stroke-width="1.5"/>
  <text x="175" y="88" font-size="14" font-weight="600" fill="#fff" text-anchor="middle">F</text>
  <polygon points="161,74 145,65 129,74 129,92 145,101 161,92" fill="#2a8fe0" stroke="#18608f" stroke-width="1.5"/>
  <text x="145" y="88" font-size="14" font-weight="600" fill="#fff" text-anchor="middle">W</text>
  <polygon points="145,101 129,92 113,101 113,119 129,128 145,119" fill="#efa92b" stroke="#b07d12" stroke-width="1.5"/>
  <text x="129" y="115" font-size="14" font-weight="600" fill="#4a2f00" text-anchor="middle">S</text>
  <polygon points="207,101 191,92 175,101 175,119 191,128 207,119" fill="#4fae5a" stroke="#2f7d3a" stroke-width="1.5"/>
  <text x="191" y="115" font-size="14" font-weight="600" fill="#fff" text-anchor="middle">E</text>
  <polygon points="161,128 145,119 129,128 129,146 145,155 161,146" fill="#e0552e" stroke="#a83a1c" stroke-width="1.5"/>
  <text x="145" y="142" font-size="14" font-weight="600" fill="#fff" text-anchor="middle">F</text>
  <polygon points="191,128 175,119 159,128 159,146 175,155 191,146" fill="#2a8fe0" stroke="#18608f" stroke-width="1.5"/>
  <text x="175" y="142" font-size="14" font-weight="600" fill="#fff" text-anchor="middle">W</text>
  <polygon points="176,101 160,92 144,101 144,119 160,128 176,119" fill="#fff6e0" stroke="#d99a1f" stroke-width="3"/>
  <text x="160" y="115" font-size="14" font-weight="600" fill="#5a3d00" text-anchor="middle">H</text>
  <text x="330" y="98" font-size="14" font-weight="600" fill="#1f2430">B1 · Hub bridges the full ring</text>
  <text x="330" y="118" font-size="12" fill="#5a6072">Fire, Water, Storm, Earth all online → screen-wide</text>
  <text x="330" y="136" font-size="12" fill="#5a6072">hybrid pressure. Peak output.</text>

  <line x1="160" y1="230" x2="175" y2="203" stroke="#d99a1f" stroke-width="3"/>
  <line x1="160" y1="230" x2="175" y2="257" stroke="#d99a1f" stroke-width="3"/>
  <polygon points="161,194 145,185 129,194 129,212 145,221 161,212" fill="#2a8fe0" stroke="#18608f" stroke-width="1.5" opacity="0.3"/>
  <text x="145" y="208" font-size="14" font-weight="600" fill="#fff" text-anchor="middle" opacity="0.3">W</text>
  <polygon points="145,221 129,212 113,221 113,239 129,248 145,239" fill="#efa92b" stroke="#b07d12" stroke-width="1.5" opacity="0.3"/>
  <text x="129" y="235" font-size="14" font-weight="600" fill="#4a2f00" text-anchor="middle" opacity="0.3">S</text>
  <polygon points="207,221 191,212 175,221 175,239 191,248 207,239" fill="#4fae5a" stroke="#2f7d3a" stroke-width="1.5" opacity="0.3"/>
  <text x="191" y="235" font-size="14" font-weight="600" fill="#fff" text-anchor="middle" opacity="0.3">E</text>
  <polygon points="161,248 145,239 129,248 129,266 145,275 161,266" fill="#e0552e" stroke="#a83a1c" stroke-width="1.5" opacity="0.3"/>
  <text x="145" y="262" font-size="14" font-weight="600" fill="#fff" text-anchor="middle" opacity="0.3">F</text>
  <polygon points="191,194 175,185 159,194 159,212 175,221 191,212" fill="#e0552e" stroke="#a83a1c" stroke-width="1.5"/>
  <text x="175" y="208" font-size="14" font-weight="600" fill="#fff" text-anchor="middle">F</text>
  <polygon points="191,248 175,239 159,248 159,266 175,275 191,266" fill="#2a8fe0" stroke="#18608f" stroke-width="1.5"/>
  <text x="175" y="262" font-size="14" font-weight="600" fill="#fff" text-anchor="middle">W</text>
  <polygon points="176,221 160,212 144,221 144,239 160,248 176,239" fill="#fff6e0" stroke="#d99a1f" stroke-width="3"/>
  <text x="160" y="235" font-size="14" font-weight="600" fill="#5a3d00" text-anchor="middle">H</text>
  <text x="330" y="218" font-size="14" font-weight="600" fill="#1f2430">B2 · Hub nudged one tile</text>
  <text x="330" y="238" font-size="12" fill="#5a6072">Now bridges only Fire + Water. Storm + Earth</text>
  <text x="330" y="256" font-size="12" fill="#5a6072">stranded (dim). ~half output — a 1-tile mistake.</text>

  <line x1="160" y1="350" x2="175" y2="323" stroke="#d99a1f" stroke-width="3"/>
  <line x1="160" y1="350" x2="145" y2="323" stroke="#d99a1f" stroke-width="3"/>
  <line x1="160" y1="350" x2="129" y2="350" stroke="#d99a1f" stroke-width="3"/>
  <line x1="160" y1="350" x2="191" y2="350" stroke="#d99a1f" stroke-width="3"/>
  <line x1="160" y1="350" x2="145" y2="377" stroke="#d99a1f" stroke-width="3"/>
  <line x1="160" y1="350" x2="175" y2="377" stroke="#d99a1f" stroke-width="3"/>
  <line x1="175" y1="377" x2="206" y2="377" stroke="#378add" stroke-width="3.5" stroke-dasharray="5 4"/>
  <polygon points="191,314 175,305 159,314 159,332 175,341 191,332" fill="#e0552e" stroke="#a83a1c" stroke-width="1.5"/>
  <text x="175" y="328" font-size="14" font-weight="600" fill="#fff" text-anchor="middle">F</text>
  <polygon points="161,314 145,305 129,314 129,332 145,341 161,332" fill="#2a8fe0" stroke="#18608f" stroke-width="1.5"/>
  <text x="145" y="328" font-size="14" font-weight="600" fill="#fff" text-anchor="middle">W</text>
  <polygon points="145,341 129,332 113,341 113,359 129,368 145,359" fill="#efa92b" stroke="#b07d12" stroke-width="1.5"/>
  <text x="129" y="355" font-size="14" font-weight="600" fill="#4a2f00" text-anchor="middle">S</text>
  <polygon points="207,341 191,332 175,341 175,359 191,368 207,359" fill="#4fae5a" stroke="#2f7d3a" stroke-width="1.5"/>
  <text x="191" y="355" font-size="14" font-weight="600" fill="#fff" text-anchor="middle">E</text>
  <polygon points="161,368 145,359 129,368 129,386 145,395 161,386" fill="#e0552e" stroke="#a83a1c" stroke-width="1.5"/>
  <text x="145" y="382" font-size="14" font-weight="600" fill="#fff" text-anchor="middle">F</text>
  <polygon points="191,368 175,359 159,368 159,386 175,395 191,386" fill="#2a8fe0" stroke="#18608f" stroke-width="1.5"/>
  <text x="175" y="382" font-size="14" font-weight="600" fill="#fff" text-anchor="middle">W</text>
  <polygon points="222,368 206,359 190,368 190,386 206,395 222,386" fill="#efa92b" stroke="#b07d12" stroke-width="1.5"/>
  <text x="206" y="382" font-size="14" font-weight="600" fill="#4a2f00" text-anchor="middle">S</text>
  <polygon points="176,341 160,332 144,341 144,359 160,368 176,359" fill="#fff6e0" stroke="#d99a1f" stroke-width="3"/>
  <text x="160" y="355" font-size="14" font-weight="600" fill="#5a3d00" text-anchor="middle">H</text>
  <text x="330" y="338" font-size="14" font-weight="600" fill="#1f2430">B3 · Re-routed</text>
  <text x="330" y="358" font-size="12" fill="#5a6072">Hub full again + a Water→Storm conduct chains</text>
  <text x="330" y="376" font-size="12" fill="#5a6072">across lanes (blue). Optimal late-game line.</text>
</svg>
